<svg width="20" height="19" viewBox="0 0 20 19" fill="none" xmlns="http://www.w3.org/2000/svg">
<path fill-rule="evenodd" clip-rule="evenodd" d="M9.72386 18.2761C9.20316 17.7554 9.20316 16.9112 9.72386 16.3905L15.4477 10.6666L1.33333 10.6666C0.596955 10.6666 7.5157e-07 10.0697 8.15946e-07 9.33329C8.80322e-07 8.59691 0.596955 7.99996 1.33333 7.99996L15.4477 7.99996L9.72386 2.2761C9.20316 1.7554 9.20316 0.911181 9.72386 0.390485C10.2446 -0.130216 11.0888 -0.130215 11.6095 0.390485L19.6095 8.39048C20.1302 8.91118 20.1302 9.7554 19.6095 10.2761L11.6095 18.2761C11.0888 18.7968 10.2446 18.7968 9.72386 18.2761Z" fill="#F7AB10"/>
</svg>
