<svg width="20" height="19" viewBox="0 0 20 19" fill="none" xmlns="http://www.w3.org/2000/svg">
<path fill-rule="evenodd" clip-rule="evenodd" d="M9.72386 18.2761C9.20316 17.7554 9.20316 16.9112 9.72386 16.3905L15.4477 10.6667L1.33333 10.6667C0.596954 10.6667 -1.49012e-07 10.0697 -1.49012e-07 9.33334C-1.49012e-07 8.59696 0.596954 8.00001 1.33333 8.00001L15.4477 8.00001L9.72386 2.27615C9.20316 1.75545 9.20316 0.911229 9.72386 0.390531C10.2446 -0.130168 11.0888 -0.130168 11.6095 0.390531L19.6095 8.39053C20.1302 8.91123 20.1302 9.75545 19.6095 10.2761L11.6095 18.2761C11.0888 18.7968 10.2446 18.7968 9.72386 18.2761Z" fill="#C2C2C2"/>
</svg>
